<svg width="324" height="215" viewBox="0 0 324 215" fill="none" xmlns="http://www.w3.org/2000/svg">
<path d="M323.96 215.45L287.83 215.03L290.11 163.7L303.1 116.36C303.1 116.36 309.76 115.54 312.81 153.83C315.86 192.12 318.14 184.75 320.08 187.8C322.02 190.85 316.75 193.35 317.31 195.29C317.86 197.23 319.16 197.21 316.94 202.49C316.94 202.49 321.46 207.92 323.97 215.36" fill="#C5A578"/>
<path d="M298.38 142.89C298.38 144 296.22 194.22 296.22 194.22L304.54 197.55L296.22 201.43L298.66 207.92L290.12 215.36L285.07 183.56L298.38 142.89Z" fill="#B68E56"/>
<path d="M197.28 188.67L185.11 196.33C181.47 198.62 176.77 198.26 173.53 195.43C170.33 192.63 166.74 189.1 165.51 186.46L163.96 182.42C162.99 177.86 163.79 170.14 170.08 165.18C173.49 152.62 175.78 132.89 177.33 125.92C180.1 113.43 181.03 114.14 181.03 114.14" fill="#C5A578"/>
<path d="M193.03 170.14L180.45 162.78L186.74 161.67L181.93 157.78L188.03 122.08L193.03 170.14Z" fill="#B68E56"/>
<path d="M263.77 91.63L304.54 116.36L290.11 198.9V215.37H238.01H194.05L195.95 201.49L181.04 114.14L225.73 90.69" fill="#C5A578"/>
<path d="M262.51 139.47V76.86L265.74 64.96C265.74 64.96 265.7 57.03 269.63 57.03C270.84 57.03 273.62 55.57 274.25 50.85C274.63 48.02 274.5 44.43 271.46 44.45L271.36 42.77L273.08 42.14V30.73L266.22 17.91L259.87 13.38L241.22 11.57L223.32 17.4L219.25 33.59L218.77 44.46C218.77 44.46 215.37 44.97 216.08 50.03C216.69 54.39 220.22 57.04 220.8 57.04H222.83L228.67 77.09V139.7L262.51 139.47Z" fill="#E3A496"/>
<path d="M238.35 115.8C238.35 115.8 240.83 117.33 244.58 117.33C248.33 117.33 250.56 115.8 250.56 115.8L243.16 141.12L238.35 115.8Z" fill="#DB9B90"/>
<path d="M237.46 130.62L236.14 84.47L245.51 88.61L255.59 84.45L254.78 132.9L259.52 132.12L262.42 103.99V80.72V72.23H228.6L228.76 80.72V126.6L237.46 130.62Z" fill="#DB9B90"/>
<path d="M228.69 83.66L228.76 97.66L239.09 112.75L243.4 136.64L250.15 112.75L262.55 99.75V83.66L263.5 87.4L268.32 106.17L266.13 115.05L249.04 203.34V215.37H238.01V204.73L217.41 105.95L226.93 87.4L228.69 83.66Z" fill="#809BAA"/>
<path d="M249.82 52.18H239.32L244.79 56.33L249.82 52.18Z" fill="#DB9B90"/>
<path d="M274.59 25.36C272.75 20.94 271.36 13.26 268.11 12.56C266.95 8.84 262.28 8.14 258.56 8.84C259.72 2.32 250.59 0 250.59 0C250.59 0 247.16 4.89 239.06 5.35C230.97 5.82 228.53 9.31 225.04 12.1C218.76 13.5 213.51 22.34 214.68 31.65C211.89 37.93 218.77 44.46 218.77 44.46H218.71L225.13 75.82L246.19 86.35L266.66 75.24L271.52 44.47H271.69C271.69 44.47 275.65 41.9 274.72 37.48C276.12 33.5 277.49 32.34 274.59 25.36ZM261.97 68.02H258.57C258.57 68.02 258.26 54.42 245.09 54.42C231.92 54.42 231.25 68.02 231.25 68.02H228.39L221.54 42.35L223.97 39.29L224.2 24.52L232.86 19.63L245.33 22.19L257.01 18.48L266.55 23.31V40.08L269.07 42.34L261.97 68.02Z" fill="#003855"/>
<path d="M289.55 153.52H270.51V154.15H289.55V153.52Z" fill="#B68E56"/>
<path d="M239.32 66.23H250.36L247.69 68.02H241.91L239.32 66.23Z" fill="#CF8677"/>
<path d="M223.7 96.33L218.2 110.75L238.01 204.73L205.58 117.86L210.58 115.75L203.39 110.8L223.55 93.78" fill="#B68E56"/>
<path d="M265.01 91.28L267.65 110.95L250.56 207.23L278.31 116.36L275.13 114.27L280.03 113.39L265.01 91.28Z" fill="#B68E56"/>
<path d="M239.09 112.75L230.68 124.17L222.26 107.06L230.81 128.6L237.47 119.51L243.4 136.64L239.09 112.75Z" fill="#003855"/>
<path d="M250.15 113.22L256.56 123.18L266.13 107.06L256.29 128.41L251.12 119.91L243.4 136.64L250.15 113.22Z" fill="#003855"/>
<path d="M243.29 98.8H247.26L245.28 100.87L243.29 98.8Z" fill="#DB9B90"/>
<path d="M167.61 185.9L167.99 186.5C169.75 187.35 181.04 191.73 181.04 191.73C184.69 191.73 192.86 184.38 192.86 184.38C192.86 184.38 195.15 179.37 185.02 176.49C174.89 173.61 165.13 177.42 165.13 177.42C165.13 180.42 166 183.37 167.61 185.9Z" fill="#61422C"/>
<path d="M167.68 167.59L167.41 163.29L172.72 164.91L174.24 170.83L176.96 166.21L182.07 167.77L181.91 173.24L185.68 169.49L191.39 172.16L187.56 176.75L193.12 175.01L196.65 177.11L182.51 184.38L166.61 180.12L161.34 170.39C160.5 168.85 160.93 169.23 159.73 167.96L152.37 160.19L155.13 160.18C157.91 160.17 160 161.13 162.12 162.67C162.81 163.18 163.46 163.75 164.06 164.36L167.68 167.59Z" fill="#E3A496"/>
<path d="M187.85 179.7L186.65 178.82V177.76H185.54L181.92 175.91L181.47 174.06L180.27 174.99L174.91 173.6L173.81 171.75L172.32 172.3L168.9 171.36L167.79 168.59L167.49 171.55C165.29 169.22 156.56 160.27 152.4 160.17L157.76 165.99C160.27 168.71 160.98 169.91 162.78 173.14L166.64 180.1L174.99 182.34L182.55 184.37L193.1 178.93L187.85 179.7Z" fill="#DB9B90"/>
<path d="M226.93 87.4L222.26 107.06L238.01 204.73L210.2 115.66L214.64 112.05L208.25 109.56L226.93 87.4Z" fill="#C5A578"/>
<path d="M263.5 87.4L266.13 107.06L249.04 203.34L275.13 114.27L268.69 112.05L275.96 110.39L263.5 87.4Z" fill="#C5A578"/>
<path d="M290.11 215.37L298.65 207.92H316.77L323.96 215.45L290.11 215.37Z" fill="#E3A496"/>
<path d="M253.592 37.5132L253.047 42.3023L255.71 42.6054L256.255 37.8163L253.592 37.5132Z" fill="#25305C"/>
<path d="M236.523 37.5237L233.86 37.8268L234.405 42.616L237.068 42.3129L236.523 37.5237Z" fill="#25305C"/>
<path d="M244.18 149.8C244.904 149.8 245.49 149.213 245.49 148.49C245.49 147.767 244.904 147.18 244.18 147.18C243.457 147.18 242.87 147.767 242.87 148.49C242.87 149.213 243.457 149.8 244.18 149.8Z" fill="#003855"/>
<path d="M244.18 165.63C244.904 165.63 245.49 165.044 245.49 164.32C245.49 163.597 244.904 163.01 244.18 163.01C243.457 163.01 242.87 163.597 242.87 164.32C242.87 165.044 243.457 165.63 244.18 165.63Z" fill="#003855"/>
<path d="M244.18 181.45C244.904 181.45 245.49 180.863 245.49 180.14C245.49 179.417 244.904 178.83 244.18 178.83C243.457 178.83 242.87 179.417 242.87 180.14C242.87 180.863 243.457 181.45 244.18 181.45Z" fill="#003855"/>
<path d="M244.18 197.28C244.904 197.28 245.49 196.693 245.49 195.97C245.49 195.247 244.904 194.66 244.18 194.66C243.457 194.66 242.87 195.247 242.87 195.97C242.87 196.693 243.457 197.28 244.18 197.28Z" fill="#003855"/>
<path d="M298.1 210.18L296.71 215.37H290.11L298.65 207.92L298.1 210.18Z" fill="#DB9B90"/>
<path d="M258.57 68.02C258.57 68.02 263.82 58.81 269.07 42.35C261.97 68.02 261.97 68.02 261.97 68.02H258.57Z" fill="#DB9B90"/>
<path d="M231.21 68.02C231.21 68.02 226.74 58.81 221.49 42.35C228.59 68.02 228.37 68.02 228.37 68.02H231.21Z" fill="#DB9B90"/>
<path d="M230.68 35.64L229.78 34.75C229.91 34.61 233.1 31.44 238.02 33.19L237.6 34.39C233.45 32.91 230.79 35.52 230.68 35.64Z" fill="#25305C"/>
<path d="M258.96 35.64C258.85 35.53 256.19 32.92 252.05 34.39L251.63 33.19C256.55 31.44 259.73 34.61 259.87 34.75L258.96 35.64Z" fill="#25305C"/>
<path d="M156.27 62.96L152.92 58.46L149.17 55.17L146.56 51.34L145.58 48.51C145.04 46.97 143.97 45.68 142.58 44.88C141.97 44.53 141.26 44.39 140.56 44.43L140.09 44.46L143.54 61.37L149.9 69.43L150.24 82.55L159.94 86.04L162.05 70.42L166.54 61.68L170.11 36.91L168.42 35.97L164.21 50.04L166.26 29.84L164.06 29.58L159.32 48.64L161.27 25.89L158.33 25.69L154.07 47.68L153.39 26.32L150.47 26.8L148.29 49.62L147.78 54.99" fill="#FDEBD0"/>
<path d="M16.4997 148.78C2.80971 135.26 6.60971 117.63 19.3697 103.35C10.5497 89.24 18.3897 89.96 26.9097 72.03C31.7597 61.84 31.2197 54.09 28.9097 46.89C21.0697 22.52 36.3097 7.69 47.3197 7.95C47.3197 7.95 60.6597 -1.59 78.6397 7.41C95.3597 15.77 94.1197 27.79 94.1197 27.79C99.9997 32.83 96.6697 53.43 95.3297 63.95C94.4397 70.95 91.9597 85.23 92.0597 85.92C94.1197 100.62 113.45 91.43 113.45 116.19" fill="#003855"/>
<path d="M84.0695 61.15C84.0695 61.15 82.8895 89.02 87.0995 92.89C89.4095 95.02 93.0895 97.98 95.6395 102.38C96.4695 103.82 98.8295 109.31 105.09 112.62C107.53 113.91 98.7495 112.88 98.2695 116.39C35.9695 115.59 29.7695 118.99 29.7695 118.99C29.7695 118.99 47.9595 109.87 42.2295 94.11C38.9095 84.98 36.1295 80.22 40.0095 61.15C43.8895 42.08 84.0695 61.15 84.0695 61.15Z" fill="#20305C"/>
<path d="M41.05 61.15C41.05 76.66 45.69 81.99 51.56 86.43L52.51 107.6L44.79 111.53L66.12 158.2L80.76 108.63L74.97 106.47C74.97 106.47 75.15 88.74 75.16 86.52C80.13 82.53 84.09 77.11 84.09 61.17H85.12C88.45 61.17 90.13 55.9 90.13 52.57C90.13 49.24 87.42 47.94 84.09 47.94C84.09 47.94 88 40.72 69.29 39.84C49.29 38.89 44.24 27.31 44.24 27.31C39.84 28.66 39.84 37.79 39.84 37.79L41.04 47.93C37.71 47.93 35 49.23 35 52.56C35 55.89 36.68 61.16 40.01 61.16L41.05 61.15Z" fill="#FDEBD0"/>
<path d="M22.7899 123.04C22.7899 123.04 16.5499 126.68 16.5499 145.38C16.5499 164.08 17.1399 203.88 17.1399 203.88L6.16992 215.45H42.7199V166.04L22.7899 123.04Z" fill="#9489AF"/>
<path d="M103.55 140.57L150.37 149.98C151.94 150.29 153.56 150.03 154.95 149.24C156.93 148.11 158.19 146.05 158.29 143.77L160.78 86.04L150.25 82.55L142.97 125.27L105.1 112.63" fill="#9489AF"/>
<path d="M71.9538 50.1325L71.377 55.1999L74.1888 55.52L74.7657 50.4526L71.9538 50.1325Z" fill="#25305C"/>
<path d="M53.8636 50.1374L51.0518 50.4575L51.6286 55.5249L54.4405 55.2048L53.8636 50.1374Z" fill="#25305C"/>
<path d="M29.96 215.32L22.4 208.73H6.37L0 215.4L29.96 215.32Z" fill="#FDEBD0"/>
<path d="M22.8904 210.73L24.1204 215.32H29.9604L22.4004 208.73L22.8904 210.73Z" fill="#F5C19C"/>
<path d="M51.5204 86.4C52.8004 87.37 54.1404 88.3 55.5104 89.28C57.8304 90.94 60.6004 91.84 63.4504 91.84C66.3404 91.84 69.1404 90.91 71.4804 89.21C72.6504 88.36 74.0504 87.55 75.1504 86.67L74.9104 106.44L78.9204 107.58L80.3304 109.96L70.7304 140.25L75.8204 110.79H69.6504V92.89C69.6504 92.89 66.8304 96.27 63.9304 96.27C61.0304 96.27 56.8004 92.89 56.8004 92.89V110.79H51.2304L58.4804 139.76L46.4404 110.79L47.9604 109.87L52.2604 107.04L51.5204 86.4Z" fill="#F5C19C"/>
<path d="M67.2901 67.13H57.8301L62.7601 70.86L67.2901 67.13Z" fill="#F5C19C"/>
<path d="M151.65 69.57L155.32 67.96L156.27 62.96L157.45 69.1L156.41 84.59L151.7 83.03L151.65 69.57Z" fill="#F5C19C"/>
<path d="M149.17 55.18L152.93 58.47L163.52 59.73L149.17 55.18Z" fill="#F5C19C"/>
<path d="M38.3104 215.45L35.7004 207.39L24.1904 202.92L36.5504 200.51L27.1404 196.79L28.0204 169.25L25.7704 163.87V140.26L30.9604 142.61L48.8904 202.18L42.7204 215.45H38.3104Z" fill="#291460"/>
<path d="M22.79 123.04L28.51 161.52L33.96 171.84L40.37 215.45H94.12L98.82 170.59L102.38 161.52L105.09 112.62C105.09 112.62 90.11 102.63 78.93 107.58C76.52 126.43 66.1 150.24 66.1 150.24C66.1 150.24 57.89 139 47.95 109.86C38.06 113.81 22.79 123.04 22.79 123.04Z" fill="#9489AF"/>
<path d="M91.5005 170.88L66.8605 166.04L42.2305 170.26L91.5005 170.88Z" fill="#291460"/>
<path d="M55.9595 46.33C51.0295 43.18 46.8095 45.8 46.6295 45.91L46.2695 45.34C46.3195 45.31 51.0295 42.37 56.3295 45.76L55.9595 46.33Z" fill="#25305C"/>
<path d="M78.3804 46.33C73.4504 43.18 69.2204 45.8 69.0504 45.91L68.6904 45.34C68.7404 45.31 73.4504 42.37 78.7504 45.76L78.3804 46.33Z" fill="#25305C"/>
<path d="M59.5703 80.71H66.6303L64.5703 82.55H61.4803L59.5703 80.71Z" fill="#F5C19C"/>
<path d="M55.7998 76.01L59.0298 76.91L61.2598 76.01H64.8298L66.8298 76.91L70.4698 76.01L67.1598 78.21H59.0298L55.7998 76.01Z" fill="#F5C19C"/>
</svg>
