<svg width="223" height="110" viewBox="0 0 223 110" fill="none" xmlns="http://www.w3.org/2000/svg">
<g clip-path="url(#clip0_1575_15476)">
<path d="M8.16628 51.0657C11.8887 55.1153 17.5445 58.1884 23.4889 58.1884C29.0581 58.1884 32.9537 54.7707 32.9537 50.0605C32.9537 41.7602 20.8918 40.7263 12.1773 35.6427C7.04089 32.6845 2.97218 28.2615 2.97218 20.9665C2.97218 9.42078 13.6489 2.78632 24.4123 2.78632C30.9915 2.78632 37.1378 4.36595 43.2553 8.87509L36.7338 18.0944C34.1368 15.6819 29.7795 13.8438 25.5088 13.8438C20.7764 13.8438 15.4957 15.8829 15.4957 20.8516C15.4957 31.2772 45.4772 28.0605 45.4772 49.8594C45.4772 61.319 35.1756 69.2459 23.4889 69.2459C14.7743 69.2459 6.69462 65.6558 0 59.5383L8.16628 51.0657Z" fill="#FF5B24"/>
<path d="M95.5141 68.3266H83.914V64.7365C80.1915 67.8671 75.9208 69.2744 71.3904 69.2744C64.6958 69.2744 58.4052 66.3162 54.423 61.6921C50.9026 57.6425 48.6807 52.0995 48.6807 45.982C48.6807 32.7705 58.5206 22.6034 70.7556 22.6034C75.8631 22.6034 80.3935 24.2692 83.9428 27.1412V23.5511H95.543V68.3266H95.5141ZM83.4523 39.2613C80.9418 35.9297 76.9596 33.7182 72.3138 33.7182C65.2729 33.7182 60.7137 39.5485 60.7137 46.0107C60.7137 53.0185 65.8212 58.1882 72.6024 58.1882C77.1616 58.1882 81.1438 55.9767 83.4523 52.6451V39.2613Z" fill="#FF5B24"/>
<path d="M223 68.3266H211.4V64.7365C207.677 67.8671 203.407 69.2744 198.876 69.2744C192.182 69.2744 185.891 66.3162 181.909 61.6921C178.388 57.6425 176.167 52.0995 176.167 45.982C176.167 32.7705 186.006 22.6034 198.241 22.6034C203.349 22.6034 207.879 24.2692 211.429 27.1412V23.5511H223.029V68.3266H223ZM210.938 39.2613C208.428 35.9297 204.445 33.7182 199.8 33.7182C192.759 33.7182 188.2 39.5485 188.2 46.0107C188.2 53.0185 193.307 58.1882 200.088 58.1882C204.647 58.1882 208.63 55.9767 210.938 52.6451V39.2613Z" fill="#FF5B24"/>
<path d="M168.347 57.7288C164.566 57.7288 161.536 56.3502 161.536 52.0995V33.7183H170.136V23.5512H161.536V7.69745H149.503L149.475 54.3685C149.475 63.7314 155.419 69.3606 164.941 69.3606C168.808 69.3606 171.203 68.6713 172.386 68.1831V57.3267C171.723 57.5277 169.934 57.7288 168.347 57.7288Z" fill="#FF5B24"/>
<path d="M101.141 2.78632H113.174V52.0996C113.174 56.3503 116.204 57.7289 119.984 57.7289C121.571 57.7289 123.36 57.5278 124.052 57.3268V68.1832C122.869 68.6714 120.474 69.3607 116.608 69.3607C107.085 69.3607 101.141 63.7315 101.141 54.3686V2.78632Z" fill="#FF5B24"/>
<path d="M142 68.3267H129.938V23.5513H142V68.3267Z" fill="#FF5B24"/>
<path d="M135.97 0C140.327 0 143.847 3.33159 143.847 7.66841C143.847 12.0052 140.327 15.3368 135.97 15.3368C131.612 15.3368 128.092 12.0052 128.092 7.66841C128.092 3.33159 131.612 0 135.97 0Z" fill="#FF5B24"/>
<path d="M42.7643 106.64C40.6578 108.65 37.8588 110 34.6558 110C28.1343 110 22.7959 104.945 22.7959 98.3397C22.7959 91.9063 27.8746 86.6217 34.6269 86.6217C38.0319 86.6217 40.9752 88.0003 43.1106 90.1831L40.6001 92.9977C39.0996 91.2457 37.0508 90.2692 34.6269 90.2692C30.1831 90.2692 26.778 94.0029 26.778 98.3397C26.778 102.763 30.2985 106.295 34.6558 106.295C36.82 106.295 39.013 105.233 40.427 103.797L42.7643 106.64Z" fill="black"/>
<path d="M59.5591 110C53.0376 110 47.6992 104.945 47.6992 98.3397C47.6992 91.9063 52.7779 86.6217 59.5302 86.6217C66.1671 86.6217 71.3901 91.7627 71.3901 98.311C71.3901 104.831 66.1383 110 59.5591 110ZM67.3791 98.3397C67.3791 93.9167 63.9452 90.2979 59.5302 90.2979C55.0864 90.2979 51.6814 94.0316 51.6814 98.3684C51.6814 102.791 55.2018 106.324 59.5591 106.324C63.9163 106.324 67.3791 102.763 67.3791 98.3397Z" fill="black"/>
<path d="M94.3011 109.598L81.8352 92.4235V109.598H77.8242V87.024H82.874L94.5608 103.079V87.024H98.5429V109.598H94.3011Z" fill="black"/>
<path d="M122.984 109.598L110.518 92.4235V109.598H106.479V87.024H111.528L123.215 103.079V87.024H127.197V109.598H122.984Z" fill="black"/>
<path d="M135.161 109.598V87.024H149.531V90.8726H139.172V95.8987H147.338V99.7473H139.172V105.75H149.531V109.598H135.161Z" fill="black"/>
<path d="M174.579 106.64C172.473 108.65 169.674 110 166.471 110C159.949 110 154.611 104.945 154.611 98.3397C154.611 91.9063 159.69 86.6217 166.442 86.6217C169.847 86.6217 172.79 88.0003 174.926 90.1831L172.415 92.9977C170.915 91.2457 168.866 90.2692 166.442 90.2692C161.998 90.2692 158.593 94.0029 158.593 98.3397C158.593 102.763 162.113 106.295 166.471 106.295C168.635 106.295 170.828 105.233 172.242 103.797L174.579 106.64Z" fill="black"/>
<path d="M186.641 109.598V90.8726H179.34V87.024H197.924V90.8726H190.652V109.598H186.641Z" fill="black"/>
</g>
<defs>
<clipPath id="clip0_1575_15476">
<rect width="223" height="110" fill="white"/>
</clipPath>
</defs>
</svg>
